<?xml version="1.0" encoding="iso-8859-1"?>
<!-- Generator: Adobe Illustrator 19.0.0, SVG Export Plug-In . SVG Version: 6.00 Build 0)  -->
<svg version="1.1" id="Capa_1" xmlns="http://www.w3.org/2000/svg" xmlns:xlink="http://www.w3.org/1999/xlink" x="0px" y="0px"
	 viewBox="0 0 512 512" style="enable-background:new 0 0 512 512;" xml:space="preserve">
<path style="fill:#FFCB63;" d="M484.382,217.813V332.69c-8.601,4.505-18.99,7.482-29.968,8.94l-29.968-66.379l29.968-66.379
	C465.392,210.331,475.781,213.308,484.382,217.813z"/>
<path style="fill:#FFE2A8;" d="M454.414,208.872V341.63c-21.447,2.847-45.132-0.13-61.934-8.94V217.813
	C409.283,209.002,432.967,206.025,454.414,208.872z"/>
<path style="fill:#A8E5FF;" d="M372.502,227.802h-29.968l19.979,139.85h29.968V247.781
	C392.48,236.747,383.535,227.802,372.502,227.802z"/>
<path style="fill:#DBF4FF;" d="M342.534,227.802h-19.979c-11.034,0-19.979,8.944-19.979,19.979l-0.002,119.872h59.938V247.781
	C362.513,236.747,353.567,227.802,342.534,227.802z"/>
<path style="fill:#C27749;" d="M361.606,137.446l-14.077,60.388c24.826,0,44.952-20.125,44.952-44.952L361.606,137.446z"/>
<path style="fill:#E18F4E;" d="M362.513,152.882c0-5.423-0.321-10.623-0.907-15.436l-41.051-20.524
	c-10.916,8.201-17.978,21.255-17.978,35.96c0,24.826,20.125,44.952,44.952,44.952C355.804,197.834,362.513,177.709,362.513,152.882z
	"/>
<path style="fill:#60312C;" d="M347.529,107.93l14.883,39.789c9.403,3.337,19.522,5.162,30.069,5.162
	C392.48,128.056,372.355,107.93,347.529,107.93z"/>
<path style="fill:#85453D;" d="M347.529,107.93c-10.121,0-19.46,3.346-26.974,8.992c10.521,14.005,25.039,24.829,41.856,30.798
	C361.558,125.327,355.221,107.93,347.529,107.93z"/>
<circle cx="347.53" cy="257.774" r="7.492"/>
<circle cx="347.53" cy="287.742" r="7.492"/>
<path d="M347.529,205.326c28.918,0,52.444-23.526,52.444-52.444s-23.526-52.444-52.444-52.444
	c-28.918,0-52.444,23.526-52.444,52.444S318.611,205.326,347.529,205.326z M384.14,144.971c-20.132-1.998-38.539-11.2-52.241-26.119
	c4.761-2.196,10.052-3.429,15.629-3.429C365.469,115.422,380.498,128.103,384.14,144.971z M319.757,127.77
	c16.674,18.783,39.534,30.212,64.538,32.264c-3.348,17.246-18.557,30.308-36.767,30.308c-20.656,0-37.46-16.804-37.46-37.46
	C310.069,143.23,313.74,134.419,319.757,127.77z"/>
<path d="M499.366,240.289h-7.492v-22.558c0-0.033,0-9.907,0-9.907c0-4.138-3.354-7.492-7.492-7.492
	c-3.682,0-6.737,2.658-7.367,6.159c-23.473-8.282-53.696-8.282-77.168,0c-0.629-3.5-3.685-6.159-7.367-6.159
	c-4.138,0-7.492,3.354-7.492,7.492v9.874c0,0.033,0,5.626,0,5.626c-3.749-1.922-7.991-3.015-12.487-3.015h-49.947
	c-15.148,0-27.471,12.323-27.471,27.471v119.872c0,4.138,3.354,7.492,7.492,7.492h7.492v113.973l-24.845,8.282
	c-3.926,1.309-6.047,5.552-4.739,9.477c1.047,3.14,3.97,5.125,7.106,5.125c0.785,0,1.584-0.125,2.37-0.387l29.968-9.989
	c3.06-1.02,5.123-3.883,5.123-7.107V375.145h44.952v119.372c0,3.225,2.064,6.087,5.123,7.107l29.968,9.989
	c0.786,0.262,1.584,0.387,2.37,0.387c3.137,0,6.06-1.986,7.106-5.125c1.309-3.925-0.813-8.168-4.739-9.477l-24.845-8.282V375.144
	h7.492c4.138,0,7.492-3.354,7.492-7.492v-23.595c11.706,4.112,25.082,6.168,38.459,6.168c13.426,0,26.847-2.074,38.584-6.214
	c0.629,3.501,3.685,6.159,7.367,6.159c4.138,0,7.492-3.354,7.492-7.492v-9.874c0-0.033,0-55.056,0-55.056
	c0-4.138-3.354-7.492-7.492-7.492s-7.492,3.354-7.492,7.492v50.212c-21.937,9.523-54.981,9.523-76.918,0V222.542
	c21.936-9.524,54.982-9.524,76.918,0v17.747h-7.492c-4.138,0-7.492,3.354-7.492,7.492c0,4.138,3.354,7.492,7.492,7.492h29.968
	c4.138,0,7.492-3.354,7.492-7.492C506.855,243.643,503.504,240.289,499.366,240.289z M310.069,360.161v-112.38
	c0-6.886,5.601-12.487,12.487-12.487h49.947c6.886,0,12.487,5.601,12.487,12.487v84.991c0,0.033,0,27.389,0,27.389H310.069z"/>
<polygon style="fill:#A8E5FF;" points="229.842,7.492 155.984,127.364 260.871,64.462 260.871,7.492 "/>
<polygon style="fill:#DBF4FF;" points="12.637,7.492 12.637,65.43 229.842,134.344 229.842,7.492 "/>
<path style="fill:#2DADE3;" d="M260.871,64.462v272.677l-90.963,59.936l59.936-351.473C235.668,56.81,247.376,64.462,260.871,64.462
	z"/>
<path style="fill:#49C9FF;" d="M198.813,64.462c-13.5,0-25.203-7.655-31.03-18.857c-5.827,11.202-17.53,18.857-31.03,18.857
	s-25.203-7.655-31.03-18.857c-5.827,11.202-17.53,18.857-31.03,18.857s-25.203-7.655-31.03-18.857
	c-5.827,11.202-17.53,18.857-31.03,18.857v272.616l217.209,59.997V45.605C224.016,56.806,212.311,64.462,198.813,64.462z"/>
<polygon style="fill:#B3B3B3;" points="260.871,337.139 230.903,337.139 122.519,442.027 260.871,367.107 "/>
<polygon style="fill:#CCCCCC;" points="229.842,337.139 12.637,337.078 12.637,367.046 122.519,442.027 229.842,367.107 "/>
<polygon style="fill:#353535;" points="229.842,367.101 170.968,435.531 229.842,503.961 260.871,503.961 260.871,367.101 "/>
<polygon style="fill:#4F4F4F;" points="12.637,367.055 12.637,503.915 229.842,503.961 229.842,367.101 "/>
<g>
	<path style="fill:#DBF4FF;" d="M107.286,239.244c0-24.824-20.127-44.952-44.952-44.952
		C62.334,219.116,82.461,239.244,107.286,239.244z"/>
	<path style="fill:#DBF4FF;" d="M62.334,284.196c24.824,0,44.952-20.127,44.952-44.952
		C82.461,239.244,62.334,259.371,62.334,284.196z"/>
</g>
<path style="fill:#A8E5FF;" d="M159.23,209.276c-22.201,0-41.571,12.058-51.944,29.968c10.374,17.91,29.743,29.968,51.944,29.968
	s41.571-12.058,51.944-29.968C200.801,221.334,181.431,209.276,159.23,209.276z"/>
<circle style="fill:#FFFFFF;" cx="184.894" cy="133.357" r="14.984"/>
<circle cx="199.878" cy="178.309" r="7.492"/>
<path d="M260.871,0H12.637C8.499,0,5.145,3.354,5.145,7.492V186.27c0,4.138,3.354,7.492,7.492,7.492s7.492-3.354,7.492-7.492V72.31
	c9.067-1.613,17.307-6.107,23.538-12.795c7.91,8.492,19.056,13.469,31.03,13.469s23.119-4.977,31.03-13.469
	c7.91,8.492,19.056,13.469,31.03,13.469s23.119-4.977,31.03-13.469c7.91,8.492,19.056,13.469,31.03,13.469
	s23.119-4.977,31.03-13.469c6.229,6.688,14.47,11.182,23.538,12.795v257.336l-233.25-0.057V216.238c0-4.138-3.354-7.492-7.492-7.492
	s-7.492,3.354-7.492,7.492V503.9c0,4.138,3.353,7.491,7.49,7.492l248.234,0.061h0.002c1.987,0,3.892-0.789,5.297-2.194
	c1.405-1.405,2.195-3.31,2.195-5.298V7.492C268.363,3.354,265.009,0,260.871,0z M236.488,43.177
	c-1.29-2.479-3.852-4.035-6.647-4.035s-5.357,1.555-6.647,4.035c-4.755,9.142-14.098,14.822-24.383,14.822
	s-19.627-5.68-24.383-14.822c-1.29-2.479-3.852-4.035-6.647-4.035c-2.795,0-5.357,1.555-6.647,4.035
	c-4.755,9.142-14.098,14.822-24.383,14.822s-19.627-5.68-24.383-14.822c-1.29-2.479-3.852-4.035-6.647-4.035
	s-5.357,1.555-6.647,4.035c-4.755,9.142-14.098,14.822-24.383,14.822s-19.627-5.68-24.383-14.822
	c-1.29-2.479-3.852-4.035-6.647-4.035s-5.357,1.555-6.647,4.035c-3.564,6.853-9.707,11.759-16.891,13.788V14.984h233.25v41.981
	C246.195,54.937,240.053,50.029,236.488,43.177z M253.379,344.629v14.984l-233.25-0.057v-14.984L253.379,344.629z M20.129,496.41
	V374.54l233.25,0.057v121.87L20.129,496.41z"/>
<path d="M54.842,284.196c0,4.138,3.354,7.492,7.492,7.492c22.667,0,42.01-14.462,49.318-34.638
	c8.686,8.612,19.587,14.737,31.466,17.678l-4.17,4.17c-2.926,2.926-2.926,7.67,0,10.595c1.462,1.462,3.38,2.195,5.297,2.195
	c1.917,0,3.835-0.731,5.297-2.195l12.874-12.874c22.778-1.088,43.732-13.754,55.239-33.619c1.346-2.323,1.346-5.187,0-7.511
	c-11.507-19.866-32.461-32.532-55.239-33.619l-12.874-12.874c-2.926-2.926-7.67-2.926-10.595,0c-2.926,2.926-2.926,7.67,0,10.595
	l4.17,4.17c-11.878,2.941-22.781,9.066-31.466,17.678c-7.308-20.175-26.651-34.637-49.318-34.637c-4.138,0-7.492,3.354-7.492,7.492
	c0,19.054,10.215,35.767,25.454,44.952C65.057,248.429,54.842,265.142,54.842,284.196z M159.23,216.768
	c17.18,0,33.3,8.512,43.067,22.476c-9.767,13.964-25.888,22.476-43.067,22.476s-33.3-8.511-43.067-22.476
	C125.93,225.279,142.051,216.768,159.23,216.768z M70.788,202.746c13.881,3.214,24.83,14.164,28.044,28.044
	C84.952,227.576,74.001,216.626,70.788,202.746z M98.832,247.698c-3.214,13.881-14.164,24.83-28.044,28.044
	C74.001,261.862,84.952,250.911,98.832,247.698z"/>
<path d="M207.366,133.357c0-12.394-10.082-22.476-22.476-22.476c-12.394,0-22.476,10.082-22.476,22.476s10.082,22.476,22.476,22.476
	C197.283,155.833,207.366,145.751,207.366,133.357z M177.398,133.357c0-4.132,3.36-7.492,7.492-7.492
	c4.132,0,7.492,3.36,7.492,7.492s-3.36,7.492-7.492,7.492C180.758,140.849,177.398,137.489,177.398,133.357z"/>
<g>
</g>
<g>
</g>
<g>
</g>
<g>
</g>
<g>
</g>
<g>
</g>
<g>
</g>
<g>
</g>
<g>
</g>
<g>
</g>
<g>
</g>
<g>
</g>
<g>
</g>
<g>
</g>
<g>
</g>
</svg>
